<?xml version="1.0" encoding="UTF-8" standalone="no"?>
<svg
   xmlns:dc="http://purl.org/dc/elements/1.1/"
   xmlns:cc="http://creativecommons.org/ns#"
   xmlns:rdf="http://www.w3.org/1999/02/22-rdf-syntax-ns#"
   xmlns:svg="http://www.w3.org/2000/svg"
   xmlns="http://www.w3.org/2000/svg"
   xmlns:xlink="http://www.w3.org/1999/xlink"
   id="svg8"
   version="1.1"
   viewBox="0 0 43.899999 50.799998"
   height="5.0799999cm"
   width="4.3899999cm">
  <defs
     id="defs2">
    <clipPath
       clipPathUnits="userSpaceOnUse"
       id="clipPath4593">
      <path
         d="M 568.83982,82.63556 403.23318,178.2486 237.62655,82.635558 l 0,-191.226078 165.60664,-95.61303 165.60663,95.61304 z"
         id="path4595"
         style="opacity:1;vector-effect:none;fill:none;fill-opacity:1;stroke:#ffffff;stroke-width:2.11666656;stroke-linecap:butt;stroke-linejoin:miter;stroke-miterlimit:4;stroke-dasharray:none;stroke-dashoffset:0;stroke-opacity:1;paint-order:normal" />
    </clipPath>
    <clipPath
       clipPathUnits="userSpaceOnUse"
       id="clipPath4955">
      <path
         style="opacity:1;vector-effect:none;fill:#ff00ff;fill-opacity:1;stroke:none;stroke-width:2.11666656;stroke-linecap:butt;stroke-linejoin:miter;stroke-miterlimit:4;stroke-dasharray:none;stroke-dashoffset:0;stroke-opacity:1;paint-order:normal"
         d="m 401.48907,-46.326141 c 0,33.333338 0,66.666676 0,100.000014 28.86752,-16.666669 57.73503,-33.333337 86.60255,-50.0000056 0,-33.3333374 0,-66.6666744 0,-100.0000114 -28.86752,16.666668 -57.73503,33.333335 -86.60255,50.000003 z"
         id="path4957" />
    </clipPath>
    <clipPath
       clipPathUnits="userSpaceOnUse"
       id="clipPath4955-9">
      <path
         style="opacity:1;vector-effect:none;fill:#ff00ff;fill-opacity:1;stroke:none;stroke-width:2.11666656;stroke-linecap:butt;stroke-linejoin:miter;stroke-miterlimit:4;stroke-dasharray:none;stroke-dashoffset:0;stroke-opacity:1;paint-order:normal"
         d="m 401.48907,-46.326141 c 0,33.333338 0,66.666676 0,100.000014 28.86752,-16.666669 57.73503,-33.333337 86.60255,-50.0000056 0,-33.3333374 0,-66.6666744 0,-100.0000114 -28.86752,16.666668 -57.73503,33.333335 -86.60255,50.000003 z"
         id="path4957-1" />
    </clipPath>
    <clipPath
       clipPathUnits="userSpaceOnUse"
       id="clipPath4593-6">
      <path
         d="M 568.83982,82.63556 403.23318,178.2486 237.62655,82.635558 l 0,-191.226078 165.60664,-95.61303 165.60663,95.61304 z"
         id="path4595-3"
         style="opacity:1;vector-effect:none;fill:none;fill-opacity:1;stroke:#ffffff;stroke-width:2.11666656;stroke-linecap:butt;stroke-linejoin:miter;stroke-miterlimit:4;stroke-dasharray:none;stroke-dashoffset:0;stroke-opacity:1;paint-order:normal" />
    </clipPath>
    <clipPath
       id="clipPath5252"
       clipPathUnits="userSpaceOnUse">
      <path
         id="path5254"
         d="M 340.65202,-54.334178 V 51.347718 L 430.92714,-0.77260568 V -105.01377 Z"
         style="fill:#ffcc00;stroke:#000000;stroke-width:0.26458332px;stroke-linecap:butt;stroke-linejoin:miter;stroke-opacity:1" />
    </clipPath>
    <clipPath
       clipPathUnits="userSpaceOnUse"
       id="clipPath4593-6-9">
      <path
         d="M 568.83982,82.63556 403.23318,178.2486 237.62655,82.635558 l 0,-191.226078 165.60664,-95.61303 165.60663,95.61304 z"
         id="path4595-3-5"
         style="opacity:1;vector-effect:none;fill:none;fill-opacity:1;stroke:#ffffff;stroke-width:2.11666656;stroke-linecap:butt;stroke-linejoin:miter;stroke-miterlimit:4;stroke-dasharray:none;stroke-dashoffset:0;stroke-opacity:1;paint-order:normal" />
    </clipPath>
    <radialGradient
       r="165.60664"
       fy="-12.977478"
       fx="403.23318"
       cy="-12.977478"
       cx="403.23318"
       gradientTransform="matrix(1.0112975,0,0,1.1383239,-4.5555367,1.7950958)"
       gradientUnits="userSpaceOnUse"
       id="radialGradient1545"
       xlink:href="#linearGradient5490" />
    <linearGradient
       id="linearGradient5490">
      <stop
         id="stop5486"
         offset="0"
         style="stop-color:#2165b6;stop-opacity:0" />
      <stop
         id="stop5488"
         offset="1"
         style="stop-color:#2165b6;stop-opacity:1" />
    </linearGradient>
    <clipPath
       clipPathUnits="userSpaceOnUse"
       id="clipPath4593-6-9-0">
      <path
         d="M 568.83982,82.63556 403.23318,178.2486 237.62655,82.635558 l 0,-191.226078 165.60664,-95.61303 165.60663,95.61304 z"
         id="path4595-3-5-3"
         style="opacity:1;vector-effect:none;fill:none;fill-opacity:1;stroke:#ffffff;stroke-width:2.11666656;stroke-linecap:butt;stroke-linejoin:miter;stroke-miterlimit:4;stroke-dasharray:none;stroke-dashoffset:0;stroke-opacity:1;paint-order:normal" />
    </clipPath>
  </defs>
  <metadata
     id="metadata5">
    <rdf:RDF>
      <cc:Work
         rdf:about="">
        <dc:format>image/svg+xml</dc:format>
        <dc:type
           rdf:resource="http://purl.org/dc/dcmitype/StillImage" />
        <dc:title></dc:title>
      </cc:Work>
    </rdf:RDF>
  </metadata>
  <g
     id="layer1"
     transform="translate(0,-246.20005)">
    <rect
       transform="matrix(0.13254268,0,0,0.13282539,-31.439956,273.29059)"
       clip-path="url(#clipPath4593)"
       y="-297"
       x="0.13229197"
       height="594"
       width="841"
       id="rect1481"
       style="opacity:1;vector-effect:none;fill:#2165b6;fill-opacity:1;stroke:none;stroke-width:2.11666656;stroke-linecap:butt;stroke-linejoin:miter;stroke-miterlimit:4;stroke-dasharray:none;stroke-dashoffset:0;stroke-opacity:1;paint-order:normal" />
    <path
       id="path1483"
       d="m 22.005471,246.16702 -0.04197,0.0243 v 0.75805 h -1.310216 l -0.109832,0.0637 h 1.420048 v 3.12894 h -3.121928 v -2.14426 l -0.06372,0.0368 v 2.10752 h -3.121412 v -0.30166 l -0.06424,0.0373 v 0.26441 h -0.456943 l -0.109832,0.0637 H 15.5922 v 3.12843 h -3.121929 v -1.6501 l -0.06372,0.0367 v 1.61337 H 9.6182583 l -0.1108685,0.0642 h 2.8991572 v 3.12842 H 9.2846171 v -2.99959 l -0.063205,0.0367 v 2.96285 H 6.0989639 v -1.15647 l -0.063724,0.0373 v 1.11921 H 4.1007422 l -0.1103504,0.0637 h 2.0448486 v 3.12842 H 2.9133106 v -2.50491 l -0.063723,0.0367 v 2.46818 H 0.05560011 v 0.0642 H 2.8495873 v 3.12843 H 0.05560011 v 0.0642 H 2.8495873 v 3.12843 H 0.05560011 v 0.0637 H 2.8495873 v 3.12894 H 0.05560011 v 0.0637 H 2.8495873 v 3.12895 H 0.05560011 v 0.0637 H 2.8495873 v 3.12843 H 0.05560011 v 0.0642 H 2.8495873 v 3.12843 H 0.05560011 v 0.0637 H 2.8495873 v 3.12894 H 0.05560011 v 0.0637 H 2.8495873 v 3.12894 H 1.7709518 l 0.1098321,0.0637 h 0.9688034 v 0.56038 l 0.063723,0.0367 v -0.59712 h 3.1219299 v 2.40349 l 0.063724,0.0373 v -2.44074 h 3.1224476 v 3.12842 h -1.933462 l 0.1108685,0.0642 h 1.8225933 v 1.05454 l 0.063205,0.0367 v -1.09128 h 3.1219304 v 2.89765 l 0.06372,0.0367 v -2.93439 h 3.121929 v 3.12843 h -2.786215 l 0.110868,0.0642 h 2.675347 v 1.54817 l 0.06424,0.0372 v -1.58542 h 3.121411 v 3.12842 h -0.454353 l 0.11035,0.0637 h 0.344003 v 0.19921 l 0.06372,0.0367 v -0.23595 h 3.12193 v 2.04232 l 0.04197,0.0243 0.02175,-0.0124 v -2.05422 h 3.12193 v 0.24785 l 0.06372,-0.0367 v -0.21112 h 0.364209 l 0.110351,-0.0637 h -0.47456 v -3.12842 h 3.121929 v 1.59681 l 0.06372,-0.0372 v -1.55956 h 2.695553 l 0.110868,-0.0642 h -2.806421 v -3.12843 h 3.12193 v 2.94577 l 0.06372,-0.0367 v -2.90903 h 3.121932 v 1.10266 l 0.06372,-0.0367 v -1.06593 h 1.84228 l 0.110868,-0.0642 h -1.953148 v -3.12842 h 3.122449 v 2.45213 l 0.06321,-0.0367 v -2.41539 h 3.122446 v 0.6085 l 0.06372,-0.0367 v -0.57176 h 0.98849 l 0.109831,-0.0637 h -1.098321 v -3.12894 h 2.813673 v -0.0637 h -2.813673 v -3.12894 h 2.813673 v -0.0637 h -2.813673 v -3.12843 h 2.813673 v -0.0642 h -2.813673 v -3.12843 h 2.813673 v -0.0637 h -2.813673 v -3.12895 h 2.813673 v -0.0637 h -2.813673 v -3.12894 h 2.813673 v -0.0637 h -2.813673 v -3.12843 h 2.813673 v -0.0642 h -2.813673 v -3.12843 h 2.813673 v -0.0642 h -2.813673 v -2.47956 l -0.06372,-0.0368 v 2.5163 H 37.95549 v -3.12842 h 2.065052 l -0.110349,-0.0637 H 37.95549 v -1.13112 l -0.06321,-0.0367 v 1.16786 h -3.122449 v -2.97422 l -0.06372,-0.0367 v 3.01097 h -3.121932 v -3.12842 h 2.919362 l -0.110867,-0.0642 h -2.808495 v -1.62475 l -0.06372,-0.0368 v 1.66149 h -3.12193 v -3.12843 h 0.58698 l -0.109831,-0.0637 h -0.477149 v -0.27579 l -0.06372,-0.0373 v 0.31305 H 25.21288 v -2.11942 l -0.06372,-0.0367 v 2.15616 h -3.12193 v -3.12894 h 1.440254 l -0.109834,-0.0637 h -1.33042 v -0.76995 z m -6.34903,4.03859 h 3.121412 v 3.12843 h -3.121412 z m 3.185135,0 h 3.12193 v 3.12843 h -3.12193 z m 3.185654,0 h 3.12193 v 3.12843 h -3.12193 z m 3.185652,0 h 3.121929 v 3.12843 h -3.121929 z m -12.742612,3.1926 h 3.121929 v 3.12842 H 12.47027 Z m 3.186171,0 h 3.121412 v 3.12842 h -3.121412 z m 3.185135,0 h 3.12193 v 3.12842 h -3.12193 z m 3.185654,0 h 3.12193 v 3.12842 h -3.12193 z m 3.185652,0 h 3.121929 v 3.12842 h -3.121929 z m 3.185654,0 h 3.12193 v 3.12842 h -3.12193 z m -22.2995721,3.19207 h 3.1224476 v 3.12842 H 6.0989639 Z m 3.1856532,0 h 3.1219299 v 3.12842 H 9.2846171 Z m 3.1856529,0 h 3.121929 v 3.12842 H 12.47027 Z m 3.186171,0 h 3.121412 v 3.12842 h -3.121412 z m 3.185135,0 h 3.12193 v 3.12842 h -3.12193 z m 3.185654,0 h 3.12193 v 3.12842 h -3.12193 z m 3.185652,0 h 3.121929 v 3.12842 h -3.121929 z m 3.185654,0 h 3.12193 v 3.12842 h -3.12193 z m 3.185652,0 h 3.121932 v 3.12842 h -3.121932 z m 3.185654,0 h 3.122449 v 3.12842 h -3.122449 z m -31.8565314,3.19258 h 3.1219299 v 3.12843 H 2.9133106 Z m 3.1856533,0 h 3.1224476 v 3.12843 H 6.0989639 Z m 3.1856532,0 h 3.1219299 v 3.12843 H 9.2846171 Z m 3.1856529,0 h 3.121929 v 3.12843 H 12.47027 Z m 3.186171,0 h 3.121412 v 3.12843 h -3.121412 z m 3.185135,0 h 3.12193 v 3.12843 h -3.12193 z m 3.185654,0 h 3.12193 v 3.12843 h -3.12193 z m 3.185652,0 h 3.121929 v 3.12843 h -3.121929 z m 3.185654,0 h 3.12193 v 3.12843 h -3.12193 z m 3.185652,0 h 3.121932 v 3.12843 h -3.121932 z m 3.185654,0 h 3.122449 v 3.12843 h -3.122449 z m 3.185654,0 h 3.122446 v 3.12843 h -3.122446 z m -35.0421854,3.19259 h 3.1219299 v 3.12843 H 2.9133106 Z m 3.1856533,0 h 3.1224476 v 3.12843 H 6.0989639 Z m 3.1856532,0 h 3.1219299 v 3.12843 H 9.2846171 Z m 3.1856529,0 h 3.121929 v 3.12843 H 12.47027 Z m 3.186171,0 h 3.121412 v 3.12843 h -3.121412 z m 3.185135,0 h 3.12193 v 3.12843 h -3.12193 z m 3.185654,0 h 3.12193 v 3.12843 h -3.12193 z m 3.185652,0 h 3.121929 v 3.12843 h -3.121929 z m 3.185654,0 h 3.12193 v 3.12843 h -3.12193 z m 3.185652,0 h 3.121932 v 3.12843 h -3.121932 z m 3.185654,0 h 3.122449 v 3.12843 h -3.122449 z m 3.185654,0 h 3.122446 v 3.12843 h -3.122446 z m -35.0421854,3.19207 h 3.1219299 v 3.12894 H 2.9133106 Z m 3.1856533,0 h 3.1224476 v 3.12894 H 6.0989639 Z m 3.1856532,0 h 3.1219299 v 3.12894 H 9.2846171 Z m 3.1856529,0 h 3.121929 v 3.12894 H 12.47027 Z m 3.186171,0 h 3.121412 v 3.12894 h -3.121412 z m 3.185135,0 h 3.12193 v 3.12894 h -3.12193 z m 3.185654,0 h 3.12193 v 3.12894 h -3.12193 z m 3.185652,0 h 3.121929 v 3.12894 h -3.121929 z m 3.185654,0 h 3.12193 v 3.12894 h -3.12193 z m 3.185652,0 h 3.121932 v 3.12894 h -3.121932 z m 3.185654,0 h 3.122449 v 3.12894 h -3.122449 z m 3.185654,0 h 3.122446 v 3.12894 H 37.955496 Z M 2.9133106,269.3601 h 3.1219299 v 3.12895 H 2.9133106 Z m 3.1856533,0 h 3.1224476 v 3.12895 H 6.0989639 Z m 3.1856532,0 h 3.1219299 v 3.12895 H 9.2846171 Z m 3.1856529,0 h 3.121929 v 3.12895 H 12.47027 Z m 3.186171,0 h 3.121412 v 3.12895 h -3.121412 z m 3.185135,0 h 3.12193 v 3.12895 h -3.12193 z m 3.185654,0 h 3.12193 v 3.12895 h -3.12193 z m 3.185652,0 h 3.121929 v 3.12895 h -3.121929 z m 3.185654,0 h 3.12193 v 3.12895 h -3.12193 z m 3.185652,0 h 3.121932 v 3.12895 h -3.121932 z m 3.185654,0 h 3.122449 v 3.12895 h -3.122449 z m 3.185654,0 h 3.122446 v 3.12895 h -3.122446 z m -35.0421854,3.19259 h 3.1219299 v 3.12843 H 2.9133106 Z m 3.1856533,0 h 3.1224476 v 3.12843 H 6.0989639 Z m 3.1856532,0 h 3.1219299 v 3.12843 H 9.2846171 Z m 3.1856529,0 h 3.121929 v 3.12843 H 12.47027 Z m 3.186171,0 h 3.121412 v 3.12843 h -3.121412 z m 3.185135,0 h 3.12193 v 3.12843 h -3.12193 z m 3.185654,0 h 3.12193 v 3.12843 h -3.12193 z m 3.185652,0 h 3.121929 v 3.12843 h -3.121929 z m 3.185654,0 h 3.12193 v 3.12843 h -3.12193 z m 3.185652,0 h 3.121932 v 3.12843 h -3.121932 z m 3.185654,0 h 3.122449 v 3.12843 h -3.122449 z m 3.185654,0 h 3.122446 v 3.12843 h -3.122446 z m -35.0421854,3.19258 h 3.1219299 v 3.12843 H 2.9133106 Z m 3.1856533,0 h 3.1224476 v 3.12843 H 6.0989639 Z m 3.1856532,0 h 3.1219299 v 3.12843 H 9.2846171 Z m 3.1856529,0 h 3.121929 v 3.12843 H 12.47027 Z m 3.186171,0 h 3.121412 v 3.12843 h -3.121412 z m 3.185135,0 h 3.12193 v 3.12843 h -3.12193 z m 3.185654,0 h 3.12193 v 3.12843 h -3.12193 z m 3.185652,0 h 3.121929 v 3.12843 h -3.121929 z m 3.185654,0 h 3.12193 v 3.12843 h -3.12193 z m 3.185652,0 h 3.121932 v 3.12843 h -3.121932 z m 3.185654,0 h 3.122449 v 3.12843 h -3.122449 z m 3.185654,0 h 3.122446 v 3.12843 h -3.122446 z m -35.0421854,3.19208 h 3.1219299 v 3.12894 H 2.9133106 Z m 3.1856533,0 h 3.1224476 v 3.12894 H 6.0989639 Z m 3.1856532,0 h 3.1219299 v 3.12894 H 9.2846171 Z m 3.1856529,0 h 3.121929 v 3.12894 H 12.47027 Z m 3.186171,0 h 3.121412 v 3.12894 h -3.121412 z m 3.185135,0 h 3.12193 v 3.12894 h -3.12193 z m 3.185654,0 h 3.12193 v 3.12894 h -3.12193 z m 3.185652,0 h 3.121929 v 3.12894 h -3.121929 z m 3.185654,0 h 3.12193 v 3.12894 h -3.12193 z m 3.185652,0 h 3.121932 v 3.12894 h -3.121932 z m 3.185654,0 h 3.122449 v 3.12894 h -3.122449 z m 3.185654,0 h 3.122446 v 3.12894 h -3.122446 z m -35.0421854,3.19259 h 3.1219299 v 3.12894 H 2.9133106 Z m 3.1856533,0 h 3.1224476 v 3.12894 H 6.0989639 Z m 3.1856532,0 h 3.1219299 v 3.12894 H 9.2846171 Z m 3.1856529,0 h 3.121929 v 3.12894 H 12.47027 Z m 3.186171,0 h 3.121412 v 3.12894 h -3.121412 z m 3.185135,0 h 3.12193 v 3.12894 h -3.12193 z m 3.185654,0 h 3.12193 v 3.12894 h -3.12193 z m 3.185652,0 h 3.121929 v 3.12894 h -3.121929 z m 3.185654,0 h 3.12193 v 3.12894 h -3.12193 z m 3.185652,0 h 3.121932 v 3.12894 h -3.121932 z m 3.185654,0 h 3.122449 v 3.12894 h -3.122449 z m 3.185654,0 h 3.122446 v 3.12894 h -3.122446 z m -28.6708789,3.19259 h 3.1219299 v 3.12842 H 9.2846171 Z m 3.1856529,0 h 3.121929 v 3.12842 H 12.47027 Z m 3.186171,0 h 3.121412 v 3.12842 h -3.121412 z m 3.185135,0 h 3.12193 v 3.12842 h -3.12193 z m 3.185654,0 h 3.12193 v 3.12842 h -3.12193 z m 3.185652,0 h 3.121929 v 3.12842 h -3.121929 z m 3.185654,0 h 3.12193 v 3.12842 h -3.12193 z m 3.185652,0 h 3.121932 v 3.12842 h -3.121932 z m -15.927747,3.19258 h 3.121412 v 3.12843 h -3.121412 z m 3.185135,0 h 3.12193 v 3.12843 h -3.12193 z m 3.185654,0 h 3.12193 v 3.12843 h -3.12193 z m 3.185652,0 h 3.121929 v 3.12843 h -3.121929 z m -6.371306,3.19259 h 3.12193 v 3.12842 h -3.12193 z m 3.185654,0 h 3.12193 v 3.12842 h -3.12193 z"
       clip-path="none"
       style="color:#000000;font-style:normal;font-variant:normal;font-weight:normal;font-stretch:normal;font-size:medium;line-height:normal;font-family:sans-serif;font-variant-ligatures:normal;font-variant-position:normal;font-variant-caps:normal;font-variant-numeric:normal;font-variant-alternates:normal;font-feature-settings:normal;text-indent:0;text-align:start;text-decoration:none;text-decoration-line:none;text-decoration-style:solid;text-decoration-color:#000000;letter-spacing:normal;word-spacing:normal;text-transform:none;writing-mode:lr-tb;direction:ltr;text-orientation:mixed;dominant-baseline:auto;baseline-shift:baseline;text-anchor:start;white-space:normal;shape-padding:0;clip-rule:nonzero;display:inline;overflow:visible;visibility:visible;opacity:1;isolation:auto;mix-blend-mode:normal;color-interpolation:sRGB;color-interpolation-filters:linearRGB;solid-color:#000000;solid-opacity:1;vector-effect:none;fill:#ffffff;fill-opacity:0.39393945;fill-rule:nonzero;stroke:none;stroke-width:0.06378128px;stroke-linecap:butt;stroke-linejoin:miter;stroke-miterlimit:4;stroke-dasharray:none;stroke-dashoffset:0;stroke-opacity:1;color-rendering:auto;image-rendering:auto;shape-rendering:auto;text-rendering:auto;enable-background:accumulate" />
    <rect
       style="opacity:1;vector-effect:none;fill:url(#radialGradient1545);fill-opacity:1;stroke:none;stroke-width:2.11666656;stroke-linecap:butt;stroke-linejoin:miter;stroke-miterlimit:4;stroke-dasharray:none;stroke-dashoffset:0;stroke-opacity:1;paint-order:normal"
       id="rect1485"
       width="841"
       height="594"
       x="0.13229197"
       y="-297"
       clip-path="url(#clipPath4593-6-9-0)"
       transform="matrix(0.13254268,0,0,0.13282539,-31.439956,273.29059)" />
    <g
       transform="matrix(0.13254268,0,0,0.13282539,-32.361431,270.4691)"
       id="text1499"
       style="font-style:normal;font-weight:normal;font-size:45.58807755px;line-height:1.25;font-family:sans-serif;letter-spacing:0px;word-spacing:0px;fill:#ffffff;fill-opacity:1;stroke:none;stroke-width:6.61458349;stroke-miterlimit:4;stroke-dasharray:none;stroke-opacity:1;paint-order:markers stroke fill"
       aria-label="starters">
      <path
         id="path998"
         style="fill:#ffffff;stroke:none;stroke-width:6.61458349;stroke-miterlimit:4;stroke-dasharray:none;stroke-opacity:1;paint-order:markers stroke fill"
         d="m 337.52948,101.956 q 0,3.02733 -0.86813,5.54269 -0.86813,2.4931 -2.44858,4.22936 -1.46915,1.64723 -3.47253,2.55988 -1.98112,0.89039 -4.2071,0.89039 -1.93661,0 -3.51705,-0.42293 -1.55819,-0.42294 -3.18315,-1.31333 v 10.41759 h -4.18485 V 89.824406 h 4.18485 v 2.604397 q 1.66948,-1.402368 3.73964,-2.33728 2.09242,-0.957171 4.45196,-0.957171 4.49648,0 6.98958,3.40575 2.51536,3.38349 2.51536,9.415898 z m -4.3184,0.1113 q 0,-4.496483 -1.53593,-6.722463 -1.53592,-2.22598 -4.71908,-2.22598 -1.80304,0 -3.62834,0.779093 -1.82531,0.779093 -3.49479,2.047902 v 14.090458 q 1.78078,0.80135 3.04959,1.09073 1.29107,0.28938 2.91603,0.28938 3.49479,0 5.45366,-2.35954 1.95886,-2.35954 1.95886,-6.98958 z" />
      <path
         id="path1000"
         style="fill:#ffffff;stroke:none;stroke-width:6.61458349;stroke-miterlimit:4;stroke-dasharray:none;stroke-opacity:1;paint-order:markers stroke fill"
         d="m 371.80958,114.68861 h -5.72077 L 355.00343,101.5108 h -6.21049 v 13.17781 H 344.3855 V 81.543759 h 9.28234 q 3.00507,0 5.00845,0.400676 2.00339,0.378417 3.60609,1.380108 1.80305,1.13525 2.80474,2.871515 1.02395,1.714005 1.02395,4.362921 0,3.583829 -1.80305,6.010147 -1.80304,2.404059 -4.96393,3.628344 z M 361.50329,90.870617 q 0,-1.424628 -0.51198,-2.515358 -0.48971,-1.11299 -1.64722,-1.869824 -0.95717,-0.645534 -2.2705,-0.890392 -1.31333,-0.267118 -3.09412,-0.267118 h -5.18653 v 12.51001 h 4.45196 q 2.09242,0 3.65061,-0.356157 1.55818,-0.378416 2.64892,-1.380108 1.00169,-0.934911 1.46914,-2.136941 0.48972,-1.224289 0.48972,-3.094112 z" />
      <path
         id="path1002"
         style="fill:#ffffff;stroke:none;stroke-width:6.61458349;stroke-miterlimit:4;stroke-dasharray:none;stroke-opacity:1;paint-order:markers stroke fill"
         d="m 395.87242,102.26764 q 0,6.07692 -3.11637,9.59397 -3.11637,3.51705 -8.34743,3.51705 -5.27557,0 -8.39194,-3.51705 -3.09411,-3.51705 -3.09411,-9.59397 0,-6.07693 3.09411,-9.593979 3.11637,-3.539309 8.39194,-3.539309 5.23106,0 8.34743,3.539309 3.11637,3.517049 3.11637,9.593979 z m -4.3184,0 q 0,-4.830381 -1.89208,-7.167661 -1.89209,-2.359539 -5.25332,-2.359539 -3.40575,0 -5.29783,2.359539 -1.86982,2.33728 -1.86982,7.167661 0,4.67455 1.89208,7.10087 1.89208,2.40406 5.27557,2.40406 3.33897,0 5.23106,-2.3818 1.91434,-2.40406 1.91434,-7.12313 z" />
      <path
         id="path1004"
         style="fill:#ffffff;stroke:none;stroke-width:6.61458349;stroke-miterlimit:4;stroke-dasharray:none;stroke-opacity:1;paint-order:markers stroke fill"
         d="m 410.1187,85.661823 h -4.71908 v -4.340662 h 4.71908 z m -0.26712,29.627797 q 0,4.36292 -2.22598,6.5889 -2.22598,2.22598 -5.96562,2.22598 -0.8904,0 -2.35954,-0.17808 -1.44689,-0.17807 -2.42632,-0.44519 v -3.98451 h 0.2226 q 0.62327,0.24486 1.66948,0.5565 1.06847,0.31164 2.07016,0.31164 1.60271,0 2.58214,-0.4452 0.97943,-0.4452 1.46915,-1.33559 0.48971,-0.89039 0.62327,-2.1592 0.15582,-1.24655 0.15582,-3.04959 V 93.341455 h -5.18653 v -3.517049 h 9.37137 z" />
      <path
         id="path1006"
         style="fill:#ffffff;stroke:none;stroke-width:6.61458349;stroke-miterlimit:4;stroke-dasharray:none;stroke-opacity:1;paint-order:markers stroke fill"
         d="m 438.85611,102.69057 h -18.31982 q 0,2.29276 0.69005,4.00677 0.69005,1.69174 1.89208,2.78247 1.15751,1.06847 2.73796,1.60271 1.60271,0.53423 3.51705,0.53423 2.53762,0 5.09749,-1.00169 2.58214,-1.02395 3.67287,-2.00338 h 0.2226 v 4.56326 q -2.11468,0.89039 -4.3184,1.49141 -2.20372,0.60101 -4.63004,0.60101 -6.18823,0 -9.66076,-3.33897 -3.47253,-3.36123 -3.47253,-9.5272 0,-6.099181 3.31672,-9.68301 3.33897,-3.583828 8.77036,-3.583828 5.03071,0 7.74641,2.938294 2.73796,2.938294 2.73796,8.347424 z m -4.07355,-3.20541 q -0.0223,-3.29445 -1.66948,-5.097495 -1.62497,-1.803044 -4.96394,-1.803044 -3.36123,0 -5.36461,1.981123 -1.98113,1.981122 -2.24824,4.919416 z" />
      <path
         id="path1008"
         style="fill:#ffffff;stroke:none;stroke-width:6.61458349;stroke-miterlimit:4;stroke-dasharray:none;stroke-opacity:1;paint-order:markers stroke fill"
         d="m 463.58675,113.13042 q -2.09242,1.00169 -3.9845,1.55819 -1.86982,0.55649 -3.98451,0.55649 -2.69343,0 -4.94167,-0.77909 -2.24824,-0.80135 -3.85095,-2.40406 -1.62496,-1.60271 -2.51536,-4.05128 -0.89039,-2.44858 -0.89039,-5.72077 0,-6.09919 3.33897,-9.57172 3.36123,-3.472529 8.8594,-3.472529 2.13695,0 4.18485,0.601015 2.07016,0.601014 3.78416,1.469147 v 4.652299 h -0.22259 q -1.91435,-1.491407 -3.96225,-2.29276 -2.02564,-0.801353 -3.96224,-0.801353 -3.56157,0 -5.63173,2.404059 -2.04791,2.381799 -2.04791,7.011842 0,4.49648 2.00339,6.92279 2.02564,2.40406 5.67625,2.40406 1.2688,0 2.58213,-0.33389 1.31333,-0.3339 2.35954,-0.86814 0.91265,-0.46745 1.71401,-0.97943 0.80135,-0.53423 1.26881,-0.91265 h 0.22259 z" />
      <path
         id="path1010"
         style="fill:#ffffff;stroke:none;stroke-width:6.61458349;stroke-miterlimit:4;stroke-dasharray:none;stroke-opacity:1;paint-order:markers stroke fill"
         d="m 481.88431,114.46601 q -1.17977,0.31164 -2.58214,0.51197 -1.38011,0.20034 -2.47084,0.20034 -3.80642,0 -5.78754,-2.0479 -1.98113,-2.0479 -1.98113,-6.56664 V 93.341455 h -2.82699 v -3.517049 h 2.82699 v -7.145397 h 4.18485 v 7.145397 h 8.6368 v 3.517049 h -8.6368 v 11.330235 q 0,1.95887 0.089,3.07186 0.089,1.09073 0.62327,2.0479 0.48972,0.89039 1.33559,1.31333 0.86813,0.40067 2.62665,0.40067 1.02396,0 2.13695,-0.28937 1.11299,-0.31164 1.6027,-0.51198 h 0.2226 z" />
      <path
         id="path1012"
         style="fill:#ffffff;stroke:none;stroke-width:6.61458349;stroke-miterlimit:4;stroke-dasharray:none;stroke-opacity:1;paint-order:markers stroke fill"
         d="m 504.72286,107.52095 q 0,3.40575 -2.82699,5.58721 -2.80474,2.18146 -7.67963,2.18146 -2.76022,0 -5.07524,-0.64553 -2.29276,-0.6678 -3.85095,-1.44689 v -4.69682 h 0.2226 q 1.98113,1.49141 4.40744,2.3818 2.42632,0.86813 4.6523,0.86813 2.76022,0 4.3184,-0.89039 1.55819,-0.89039 1.55819,-2.80474 0,-1.46914 -0.84587,-2.22598 -0.84587,-0.75683 -3.24993,-1.29106 -0.89039,-0.20034 -2.33728,-0.46746 -1.42463,-0.26712 -2.6044,-0.57875 -3.27219,-0.86814 -4.6523,-2.53762 -1.35785,-1.691748 -1.35785,-4.140326 0,-1.535926 0.62328,-2.893774 0.64553,-1.357848 1.9366,-2.426319 1.24655,-1.046211 3.16089,-1.647225 1.93661,-0.623275 4.31841,-0.623275 2.22598,0 4.49648,0.556495 2.29276,0.534235 3.80642,1.313329 v 4.47422 h -0.2226 q -1.6027,-1.17977 -3.89546,-1.981122 -2.29276,-0.823613 -4.49648,-0.823613 -2.29276,0 -3.87321,0.890392 -1.58044,0.868132 -1.58044,2.604397 0,1.535926 0.95717,2.31502 0.93491,0.779093 3.02733,1.268808 1.15751,0.267113 2.58214,0.534233 1.44689,0.26712 2.40406,0.48972 2.91603,0.66779 4.49648,2.29276 1.58044,1.64722 1.58044,4.36292 z" />
    </g>
    <path
       style="opacity:1;vector-effect:none;fill:#ffffff;fill-opacity:1;stroke:none;stroke-width:0.29275882;stroke-linecap:butt;stroke-linejoin:miter;stroke-miterlimit:4;stroke-dasharray:none;stroke-dashoffset:0;stroke-opacity:1;paint-order:normal"
       d="m 21.994603,252.00604 -11.961467,6.93506 0.0078,13.84587 11.969284,6.91079 11.96139,-6.93499 -0.0078,-13.84587 z m 1.52e-4,0.37195 11.482346,6.62966 -11.474836,6.65288 -11.482267,-6.62966 z m -11.684381,6.96561 11.482284,6.62966 0.0075,13.28247 -11.482831,-6.62965 z m 23.377731,-0.0236 0.0075,13.28248 -11.474757,6.65289 -0.0075,-13.28249 z"
       id="path1489" />
    <g
       id="g1493"
       style="font-style:normal;font-weight:normal;font-size:123.78898621px;line-height:1.25;font-family:sans-serif;letter-spacing:0px;word-spacing:0px;fill:#ffffff;fill-opacity:1;stroke:none;stroke-width:3.09472466"
       aria-label="R"
       transform="matrix(-0.13387395,1.3540166e-4,-7.5861573e-5,-0.1341595,63.571455,266.36072)">
      <path
         id="path1491"
         style="fill:#ffffff;stroke-width:3.09472466"
         d="m 311.71257,-96.326139 c 0,0 18.06563,10.430199 18.06563,10.430199 0,0 35.00654,59.969272 35.00654,59.969272 0,0 19.6121,11.323052 19.6121,11.323052 0,0 0,-39.758231 0,-39.758231 0,0 13.91827,8.035715 13.91827,8.035715 0,0 0,100.000009 0,100.000009 0,0 -29.31271,-16.923702 -29.31271,-16.923702 -6.32649,-3.652598 -11.59855,-7.099384 -15.81621,-10.340356 -4.21766,-3.196204 -8.01355,-6.775721 -11.38768,-10.73855 -3.79589,-4.47497 -6.74824,-9.0673595 -8.85707,-13.7771675 -2.15569,-4.6920949 -3.23354,-9.7021229 -3.23354,-15.0300845 0,-7.208418 1.89795,-12.156962 5.69385,-14.845633 3.79589,-2.643902 9.02109,-3.27611 15.67561,-1.896623 0,0 -39.36479,-66.4479 -39.36479,-66.4479 m 32.54625,90.6509062 c 0,2.8654583 0.53892,5.70626809 1.61677,8.5224295 1.03098,2.8338753 2.7649,5.7154137 5.20177,8.6446153 2.01511,2.461833 4.40511,4.737158 7.17001,6.825976 2.76491,2.133595 6.02189,4.282645 9.77091,6.447148 0,0 16.37856,9.456167 16.37856,9.456167 0,0 0,-37.7434549 0,-37.7434549 0,0 -14.05885,-8.1168851 -14.05885,-8.1168851 -4.40511,-2.54329 -8.24786,-4.403723 -11.52826,-5.581299 -3.2804,-1.132798 -6.06873,-1.354689 -8.36501,-0.665673 -2.10884,0.662922 -3.65531,1.919157 -4.63943,3.768705 -1.03098,1.867267 -1.54647,4.6813572 -1.54647,8.4422712 0,0 0,0 0,0" />
    </g>
    <path
       style="opacity:1;vector-effect:none;fill:none;fill-opacity:1;stroke:#ffffff;stroke-width:0.2808477;stroke-linecap:butt;stroke-linejoin:miter;stroke-miterlimit:4;stroke-dasharray:none;stroke-dashoffset:0;stroke-opacity:1;paint-order:normal"
       d="m 16.347841,255.54379 11.636242,6.71854"
       id="path1495" />
    <path
       id="path5280"
       d="m 33.388302,259.22102 -0.238348,0.13759 -11.105502,19.75118 5.8e-4,0.28533 z m 0.437398,0.24145 -11.040768,19.63613 0.237386,-0.13585 10.804648,-19.21619 z m -1.524368,0.38606 -0.238348,0.13759 -10.020914,17.8222 5.79e-4,0.28534 z m -1.08698,0.62743 -0.238347,0.13759 -8.93631,15.8933 5.8e-4,0.28535 z m 2.61709,0.28228 -9.963779,17.72063 0.237394,-0.13588 9.727633,-17.30066 z m -3.704069,0.34521 -0.23834,0.13759 -7.85172,13.96434 5.79e-4,0.28533 z m -1.087041,0.62745 -0.238356,0.13759 -6.767115,12.03543 5.79e-4,0.28539 z m 4.796772,0.32291 -8.886842,15.80531 0.237386,-0.13586 8.650705,-15.38529 z m -5.883751,0.30459 -0.238348,0.13759 -5.682527,10.10645 5.79e-4,0.28541 z m -1.086979,0.62744 -0.238348,0.13758 -4.597922,8.17756 5.79e-4,0.28539 z m 6.976392,0.3636 -7.809904,13.89001 0.237387,-0.13587 7.573766,-13.47006 z m -8.063363,0.26389 -0.238357,0.1376 -3.513325,6.24856 5.79e-4,0.28541 z m -1.086979,0.62744 -0.238349,0.13759 -2.428797,4.31967 5.79e-4,0.28539 z m 9.156006,0.40429 -6.732977,11.97465 0.237387,-0.13589 6.496847,-11.55465 z m -10.184381,0.18939 -0.238349,0.1376 -1.402701,2.49466 5.79e-4,0.28534 z m 10.190112,1.10626 -5.656037,10.05935 0.237385,-0.13595 5.41984,-9.63931 z m 0.0059,1.29563 -4.579109,8.14396 0.237394,-0.13587 4.342972,-7.72399 z m 0.0059,1.29563 -3.502172,6.22859 0.237386,-0.13587 3.266043,-5.80862 z m 0.0059,1.29564 -2.425174,4.31328 0.237394,-0.13588 2.189037,-3.8933 z m 0.0059,1.29561 -1.348314,2.39792 0.237386,-0.13586 1.112116,-1.97795 z"
       style="color:#000000;font-style:normal;font-variant:normal;font-weight:normal;font-stretch:normal;font-size:medium;line-height:normal;font-family:sans-serif;font-variant-ligatures:normal;font-variant-position:normal;font-variant-caps:normal;font-variant-numeric:normal;font-variant-alternates:normal;font-feature-settings:normal;text-indent:0;text-align:start;text-decoration:none;text-decoration-line:none;text-decoration-style:solid;text-decoration-color:#000000;letter-spacing:normal;word-spacing:normal;text-transform:none;writing-mode:lr-tb;direction:ltr;text-orientation:mixed;dominant-baseline:auto;baseline-shift:baseline;text-anchor:start;white-space:normal;shape-padding:0;clip-rule:nonzero;display:inline;overflow:visible;visibility:visible;opacity:1;isolation:auto;mix-blend-mode:normal;color-interpolation:sRGB;color-interpolation-filters:linearRGB;solid-color:#000000;solid-opacity:1;vector-effect:none;fill:#ffffff;fill-opacity:1;fill-rule:nonzero;stroke:none;stroke-width:0.14042385;stroke-linecap:butt;stroke-linejoin:miter;stroke-miterlimit:4;stroke-dasharray:none;stroke-dashoffset:0;stroke-opacity:1;color-rendering:auto;image-rendering:auto;shape-rendering:auto;text-rendering:auto;enable-background:accumulate" />
  </g>
</svg>
