<?xml version="1.0" encoding="UTF-8" standalone="no"?>
<svg
   xmlns:dc="http://purl.org/dc/elements/1.1/"
   xmlns:cc="http://creativecommons.org/ns#"
   xmlns:rdf="http://www.w3.org/1999/02/22-rdf-syntax-ns#"
   xmlns:svg="http://www.w3.org/2000/svg"
   xmlns="http://www.w3.org/2000/svg"
   xmlns:xlink="http://www.w3.org/1999/xlink"
   xmlns:sodipodi="http://sodipodi.sourceforge.net/DTD/sodipodi-0.dtd"
   xmlns:inkscape="http://www.inkscape.org/namespaces/inkscape"
   id="svg8"
   version="1.1"
   viewBox="0 0 43.899999 50.799998"
   height="5.0799999cm"
   width="4.3899999cm"
   sodipodi:docname="pRojects_Final.svg"
   inkscape:version="0.92.3 (2405546, 2018-03-11)"
   inkscape:export-filename="D:\Local Repos\starters\images\pRojects_Design 300dpi.png"
   inkscape:export-xdpi="300"
   inkscape:export-ydpi="300">
  <sodipodi:namedview
     pagecolor="#ffffff"
     bordercolor="#666666"
     borderopacity="1"
     objecttolerance="10"
     gridtolerance="10"
     guidetolerance="10"
     inkscape:pageopacity="0"
     inkscape:pageshadow="2"
     inkscape:window-width="640"
     inkscape:window-height="480"
     id="namedview41"
     showgrid="false"
     inkscape:current-layer="svg8" />
  <defs
     id="defs2">
    <clipPath
       clipPathUnits="userSpaceOnUse"
       id="clipPath4593">
      <path
         d="M 568.83982,82.63556 403.23318,178.2486 237.62655,82.635558 l 0,-191.226078 165.60664,-95.61303 165.60663,95.61304 z"
         id="path4595"
         style="opacity:1;vector-effect:none;fill:none;fill-opacity:1;stroke:#ffffff;stroke-width:2.11666656;stroke-linecap:butt;stroke-linejoin:miter;stroke-miterlimit:4;stroke-dasharray:none;stroke-dashoffset:0;stroke-opacity:1;paint-order:normal" />
    </clipPath>
    <clipPath
       clipPathUnits="userSpaceOnUse"
       id="clipPath4955">
      <path
         style="opacity:1;vector-effect:none;fill:#ff00ff;fill-opacity:1;stroke:none;stroke-width:2.11666656;stroke-linecap:butt;stroke-linejoin:miter;stroke-miterlimit:4;stroke-dasharray:none;stroke-dashoffset:0;stroke-opacity:1;paint-order:normal"
         d="m 401.48907,-46.326141 c 0,33.333338 0,66.666676 0,100.000014 28.86752,-16.666669 57.73503,-33.333337 86.60255,-50.0000056 0,-33.3333374 0,-66.6666744 0,-100.0000114 -28.86752,16.666668 -57.73503,33.333335 -86.60255,50.000003 z"
         id="path4957" />
    </clipPath>
    <clipPath
       clipPathUnits="userSpaceOnUse"
       id="clipPath4955-9">
      <path
         style="opacity:1;vector-effect:none;fill:#ff00ff;fill-opacity:1;stroke:none;stroke-width:2.11666656;stroke-linecap:butt;stroke-linejoin:miter;stroke-miterlimit:4;stroke-dasharray:none;stroke-dashoffset:0;stroke-opacity:1;paint-order:normal"
         d="m 401.48907,-46.326141 c 0,33.333338 0,66.666676 0,100.000014 28.86752,-16.666669 57.73503,-33.333337 86.60255,-50.0000056 0,-33.3333374 0,-66.6666744 0,-100.0000114 -28.86752,16.666668 -57.73503,33.333335 -86.60255,50.000003 z"
         id="path4957-1" />
    </clipPath>
    <clipPath
       clipPathUnits="userSpaceOnUse"
       id="clipPath4593-6">
      <path
         d="M 568.83982,82.63556 403.23318,178.2486 237.62655,82.635558 l 0,-191.226078 165.60664,-95.61303 165.60663,95.61304 z"
         id="path4595-3"
         style="opacity:1;vector-effect:none;fill:none;fill-opacity:1;stroke:#ffffff;stroke-width:2.11666656;stroke-linecap:butt;stroke-linejoin:miter;stroke-miterlimit:4;stroke-dasharray:none;stroke-dashoffset:0;stroke-opacity:1;paint-order:normal" />
    </clipPath>
    <clipPath
       id="clipPath5252"
       clipPathUnits="userSpaceOnUse">
      <path
         id="path5254"
         d="M 340.65202,-54.334178 V 51.347718 L 430.92714,-0.77260568 V -105.01377 Z"
         style="fill:#ffcc00;stroke:#000000;stroke-width:0.26458332px;stroke-linecap:butt;stroke-linejoin:miter;stroke-opacity:1" />
    </clipPath>
    <clipPath
       clipPathUnits="userSpaceOnUse"
       id="clipPath4593-6-9">
      <path
         d="M 568.83982,82.63556 403.23318,178.2486 237.62655,82.635558 l 0,-191.226078 165.60664,-95.61303 165.60663,95.61304 z"
         id="path4595-3-5"
         style="opacity:1;vector-effect:none;fill:none;fill-opacity:1;stroke:#ffffff;stroke-width:2.11666656;stroke-linecap:butt;stroke-linejoin:miter;stroke-miterlimit:4;stroke-dasharray:none;stroke-dashoffset:0;stroke-opacity:1;paint-order:normal" />
    </clipPath>
    <radialGradient
       r="165.60664"
       fy="-12.977478"
       fx="403.23318"
       cy="-12.977478"
       cx="403.23318"
       gradientTransform="matrix(1.0112975,0,0,1.1383239,-4.5555367,1.7950958)"
       gradientUnits="userSpaceOnUse"
       id="radialGradient1545"
       xlink:href="#linearGradient5490" />
    <linearGradient
       id="linearGradient5490">
      <stop
         id="stop5486"
         offset="0"
         style="stop-color:#2165b6;stop-opacity:0" />
      <stop
         id="stop5488"
         offset="1"
         style="stop-color:#2165b6;stop-opacity:1" />
    </linearGradient>
    <clipPath
       clipPathUnits="userSpaceOnUse"
       id="clipPath4593-6-9-0">
      <path
         d="M 568.83982,82.63556 403.23318,178.2486 237.62655,82.635558 l 0,-191.226078 165.60664,-95.61303 165.60663,95.61304 z"
         id="path4595-3-5-3"
         style="opacity:1;vector-effect:none;fill:none;fill-opacity:1;stroke:#ffffff;stroke-width:2.11666656;stroke-linecap:butt;stroke-linejoin:miter;stroke-miterlimit:4;stroke-dasharray:none;stroke-dashoffset:0;stroke-opacity:1;paint-order:normal" />
    </clipPath>
  </defs>
  <metadata
     id="metadata5">
    <rdf:RDF>
      <cc:Work
         rdf:about="">
        <dc:format>image/svg+xml</dc:format>
        <dc:type
           rdf:resource="http://purl.org/dc/dcmitype/StillImage" />
        <dc:title></dc:title>
      </cc:Work>
    </rdf:RDF>
  </metadata>
  <rect
     style="opacity:1;vector-effect:none;fill:#2165b6;fill-opacity:1;stroke:none;stroke-width:2.11666656;stroke-linecap:butt;stroke-linejoin:miter;stroke-miterlimit:4;stroke-dasharray:none;stroke-dashoffset:0;stroke-opacity:1;paint-order:normal"
     id="rect1481"
     width="841"
     height="594"
     x="0.13229197"
     y="-297"
     clip-path="url(#clipPath4593)"
     transform="matrix(0.13254268,0,0,0.13282539,-31.439956,27.09054)" />
  <path
     inkscape:connector-curvature="0"
     style="color:#000000;font-style:normal;font-variant:normal;font-weight:normal;font-stretch:normal;font-size:medium;line-height:normal;font-family:sans-serif;font-variant-ligatures:normal;font-variant-position:normal;font-variant-caps:normal;font-variant-numeric:normal;font-variant-alternates:normal;font-feature-settings:normal;text-indent:0;text-align:start;text-decoration:none;text-decoration-line:none;text-decoration-style:solid;text-decoration-color:#000000;letter-spacing:normal;word-spacing:normal;text-transform:none;writing-mode:lr-tb;direction:ltr;text-orientation:mixed;dominant-baseline:auto;baseline-shift:baseline;text-anchor:start;white-space:normal;shape-padding:0;clip-rule:nonzero;display:inline;overflow:visible;visibility:visible;opacity:1;isolation:auto;mix-blend-mode:normal;color-interpolation:sRGB;color-interpolation-filters:linearRGB;solid-color:#000000;solid-opacity:1;vector-effect:none;fill:#ffffff;fill-opacity:0.39393945;fill-rule:nonzero;stroke:none;stroke-width:0.06378128px;stroke-linecap:butt;stroke-linejoin:miter;stroke-miterlimit:4;stroke-dasharray:none;stroke-dashoffset:0;stroke-opacity:1;color-rendering:auto;image-rendering:auto;shape-rendering:auto;text-rendering:auto;enable-background:accumulate"
     clip-path="none"
     d="m 22.005471,-0.03303 -0.04197,0.0243 v 0.75805 h -1.310216 l -0.109832,0.0637 h 1.420048 V 3.94196 H 18.841573 V 1.7977 l -0.06372,0.0368 V 3.94202 H 15.656441 V 3.64036 l -0.06424,0.0373 v 0.26441 h -0.456943 l -0.109832,0.0637 H 15.5922 V 7.1342 H 12.470271 V 5.4841 l -0.06372,0.0367 V 7.13417 H 9.6182583 l -0.1108685,0.0642 h 2.8991572 v 3.12842 H 9.2846171 V 7.3272 l -0.063205,0.0367 v 2.96285 H 6.0989639 V 9.17028 l -0.063724,0.0373 v 1.11921 H 4.1007422 l -0.1103504,0.0637 h 2.0448486 v 3.12842 H 2.9133106 V 11.014 l -0.063723,0.0367 v 2.46818 H 0.05560011 v 0.0642 H 2.8495873 v 3.12843 H 0.05560011 v 0.0642 H 2.8495873 v 3.12843 H 0.05560011 v 0.0637 H 2.8495873 v 3.12894 H 0.05560011 v 0.0637 H 2.8495873 v 3.12895 H 0.05560011 v 0.0637 H 2.8495873 v 3.12843 H 0.05560011 v 0.0642 H 2.8495873 v 3.12843 H 0.05560011 v 0.0637 H 2.8495873 v 3.12894 H 0.05560011 v 0.0637 H 2.8495873 v 3.12894 H 1.7709518 l 0.1098321,0.0637 h 0.9688034 v 0.56038 l 0.063723,0.0367 v -0.59712 h 3.1219299 v 2.40349 l 0.063724,0.0373 v -2.44074 h 3.1224476 v 3.12842 h -1.933462 l 0.1108685,0.0642 h 1.8225933 v 1.05454 l 0.063205,0.0367 v -1.09128 h 3.1219304 v 2.89765 l 0.06372,0.0367 v -2.93439 h 3.121929 v 3.12843 h -2.786215 l 0.110868,0.0642 h 2.675347 v 1.54817 l 0.06424,0.0372 V 45.5083 h 3.121411 v 3.12842 h -0.454353 l 0.11035,0.0637 h 0.344003 v 0.19921 l 0.06372,0.0367 v -0.23595 h 3.12193 v 2.04232 l 0.04197,0.0243 0.02175,-0.0124 v -2.05422 h 3.12193 v 0.24785 l 0.06372,-0.0367 v -0.21112 h 0.364209 l 0.110351,-0.0637 h -0.47456 v -3.12842 h 3.121929 v 1.59681 l 0.06372,-0.0372 v -1.55956 h 2.695553 l 0.110868,-0.0642 h -2.806421 v -3.12843 h 3.12193 v 2.94577 l 0.06372,-0.0367 v -2.90903 h 3.121932 v 1.10266 l 0.06372,-0.0367 v -1.06593 h 1.84228 l 0.110868,-0.0642 h -1.953148 v -3.12842 h 3.122449 v 2.45213 l 0.06321,-0.0367 V 39.1232 h 3.122446 v 0.6085 l 0.06372,-0.0367 v -0.57176 h 0.98849 l 0.109831,-0.0637 H 41.141643 V 35.9306 h 2.813673 v -0.0637 h -2.813673 v -3.12894 h 2.813673 v -0.0637 h -2.813673 v -3.12843 h 2.813673 v -0.0642 H 41.141643 V 26.3532 h 2.813673 v -0.0637 h -2.813673 v -3.12895 h 2.813673 v -0.0637 h -2.813673 v -3.12894 h 2.813673 v -0.0637 h -2.813673 v -3.12843 h 2.813673 v -0.0642 h -2.813673 v -3.12843 h 2.813673 v -0.0642 h -2.813673 v -2.47956 l -0.06372,-0.0368 v 2.5163 H 37.95549 v -3.12842 h 2.065052 l -0.110349,-0.0637 H 37.95549 V 9.19565 l -0.06321,-0.0367 v 1.16786 H 34.769831 V 7.35259 l -0.06372,-0.0367 v 3.01097 H 31.584179 V 7.19844 h 2.919362 L 34.392674,7.13424 H 31.584179 V 5.50949 l -0.06372,-0.0368 v 1.66149 h -3.12193 V 4.00575 h 0.58698 L 28.875678,3.94205 H 28.398529 V 3.66626 l -0.06372,-0.0373 V 3.94201 H 25.21288 V 1.82259 L 25.14916,1.78589 V 3.94205 H 22.02723 V 0.81311 h 1.440254 L 23.35765,0.74941 h -1.33042 v -0.76995 z m -6.34903,4.03859 h 3.121412 v 3.12843 h -3.121412 z m 3.185135,0 h 3.12193 v 3.12843 h -3.12193 z m 3.185654,0 h 3.12193 v 3.12843 h -3.12193 z m 3.185652,0 h 3.121929 V 7.13399 H 25.212882 Z M 12.47027,7.19816 h 3.121929 v 3.12842 H 12.47027 Z m 3.186171,0 h 3.121412 v 3.12842 h -3.121412 z m 3.185135,0 h 3.12193 v 3.12842 h -3.12193 z m 3.185654,0 h 3.12193 v 3.12842 h -3.12193 z m 3.185652,0 h 3.121929 v 3.12842 h -3.121929 z m 3.185654,0 h 3.12193 v 3.12842 h -3.12193 z M 6.0989639,10.39023 h 3.1224476 v 3.12842 H 6.0989639 Z m 3.1856532,0 h 3.1219299 v 3.12842 H 9.2846171 Z m 3.1856529,0 h 3.121929 v 3.12842 H 12.47027 Z m 3.186171,0 h 3.121412 v 3.12842 h -3.121412 z m 3.185135,0 h 3.12193 v 3.12842 h -3.12193 z m 3.185654,0 h 3.12193 v 3.12842 h -3.12193 z m 3.185652,0 h 3.121929 v 3.12842 h -3.121929 z m 3.185654,0 h 3.12193 v 3.12842 h -3.12193 z m 3.185652,0 h 3.121932 v 3.12842 h -3.121932 z m 3.185654,0 h 3.122449 v 3.12842 H 34.769842 Z M 2.9133106,13.58281 h 3.1219299 v 3.12843 H 2.9133106 Z m 3.1856533,0 h 3.1224476 v 3.12843 H 6.0989639 Z m 3.1856532,0 h 3.1219299 v 3.12843 H 9.2846171 Z m 3.1856529,0 h 3.121929 v 3.12843 H 12.47027 Z m 3.186171,0 h 3.121412 v 3.12843 h -3.121412 z m 3.185135,0 h 3.12193 v 3.12843 h -3.12193 z m 3.185654,0 h 3.12193 v 3.12843 h -3.12193 z m 3.185652,0 h 3.121929 v 3.12843 h -3.121929 z m 3.185654,0 h 3.12193 v 3.12843 h -3.12193 z m 3.185652,0 h 3.121932 v 3.12843 h -3.121932 z m 3.185654,0 h 3.122449 v 3.12843 h -3.122449 z m 3.185654,0 h 3.122446 v 3.12843 H 37.955496 Z M 2.9133106,16.7754 h 3.1219299 v 3.12843 H 2.9133106 Z m 3.1856533,0 h 3.1224476 v 3.12843 H 6.0989639 Z m 3.1856532,0 h 3.1219299 v 3.12843 H 9.2846171 Z m 3.1856529,0 h 3.121929 v 3.12843 H 12.47027 Z m 3.186171,0 h 3.121412 v 3.12843 h -3.121412 z m 3.185135,0 h 3.12193 v 3.12843 h -3.12193 z m 3.185654,0 h 3.12193 v 3.12843 h -3.12193 z m 3.185652,0 h 3.121929 v 3.12843 h -3.121929 z m 3.185654,0 h 3.12193 v 3.12843 h -3.12193 z m 3.185652,0 h 3.121932 v 3.12843 h -3.121932 z m 3.185654,0 h 3.122449 v 3.12843 h -3.122449 z m 3.185654,0 h 3.122446 v 3.12843 H 37.955496 Z M 2.9133106,19.96747 h 3.1219299 v 3.12894 H 2.9133106 Z m 3.1856533,0 h 3.1224476 v 3.12894 H 6.0989639 Z m 3.1856532,0 h 3.1219299 v 3.12894 H 9.2846171 Z m 3.1856529,0 h 3.121929 v 3.12894 H 12.47027 Z m 3.186171,0 h 3.121412 v 3.12894 h -3.121412 z m 3.185135,0 h 3.12193 v 3.12894 h -3.12193 z m 3.185654,0 h 3.12193 v 3.12894 h -3.12193 z m 3.185652,0 h 3.121929 v 3.12894 h -3.121929 z m 3.185654,0 h 3.12193 v 3.12894 h -3.12193 z m 3.185652,0 h 3.121932 v 3.12894 h -3.121932 z m 3.185654,0 h 3.122449 v 3.12894 h -3.122449 z m 3.185654,0 h 3.122446 v 3.12894 H 37.955496 Z M 2.9133106,23.16005 H 6.0352405 V 26.289 H 2.9133106 Z m 3.1856533,0 H 9.2214115 V 26.289 H 6.0989639 Z m 3.1856532,0 H 12.406547 V 26.289 H 9.2846171 Z m 3.1856529,0 h 3.121929 V 26.289 H 12.47027 Z m 3.186171,0 h 3.121412 V 26.289 h -3.121412 z m 3.185135,0 h 3.12193 V 26.289 h -3.12193 z m 3.185654,0 h 3.12193 V 26.289 h -3.12193 z m 3.185652,0 h 3.121929 V 26.289 h -3.121929 z m 3.185654,0 h 3.12193 V 26.289 h -3.12193 z m 3.185652,0 H 34.70612 V 26.289 h -3.121932 z m 3.185654,0 h 3.122449 V 26.289 h -3.122449 z m 3.185654,0 h 3.122446 V 26.289 H 37.955496 Z M 2.9133106,26.35264 h 3.1219299 v 3.12843 H 2.9133106 Z m 3.1856533,0 h 3.1224476 v 3.12843 H 6.0989639 Z m 3.1856532,0 h 3.1219299 v 3.12843 H 9.2846171 Z m 3.1856529,0 h 3.121929 v 3.12843 H 12.47027 Z m 3.186171,0 h 3.121412 v 3.12843 h -3.121412 z m 3.185135,0 h 3.12193 v 3.12843 h -3.12193 z m 3.185654,0 h 3.12193 v 3.12843 h -3.12193 z m 3.185652,0 h 3.121929 v 3.12843 h -3.121929 z m 3.185654,0 h 3.12193 v 3.12843 h -3.12193 z m 3.185652,0 h 3.121932 v 3.12843 h -3.121932 z m 3.185654,0 h 3.122449 v 3.12843 h -3.122449 z m 3.185654,0 h 3.122446 v 3.12843 H 37.955496 Z M 2.9133106,29.54522 h 3.1219299 v 3.12843 H 2.9133106 Z m 3.1856533,0 h 3.1224476 v 3.12843 H 6.0989639 Z m 3.1856532,0 h 3.1219299 v 3.12843 H 9.2846171 Z m 3.1856529,0 h 3.121929 v 3.12843 H 12.47027 Z m 3.186171,0 h 3.121412 v 3.12843 h -3.121412 z m 3.185135,0 h 3.12193 v 3.12843 h -3.12193 z m 3.185654,0 h 3.12193 v 3.12843 h -3.12193 z m 3.185652,0 h 3.121929 v 3.12843 h -3.121929 z m 3.185654,0 h 3.12193 v 3.12843 h -3.12193 z m 3.185652,0 h 3.121932 v 3.12843 h -3.121932 z m 3.185654,0 h 3.122449 v 3.12843 h -3.122449 z m 3.185654,0 h 3.122446 v 3.12843 H 37.955496 Z M 2.9133106,32.7373 h 3.1219299 v 3.12894 H 2.9133106 Z m 3.1856533,0 h 3.1224476 v 3.12894 H 6.0989639 Z m 3.1856532,0 h 3.1219299 v 3.12894 H 9.2846171 Z m 3.1856529,0 h 3.121929 v 3.12894 H 12.47027 Z m 3.186171,0 h 3.121412 v 3.12894 h -3.121412 z m 3.185135,0 h 3.12193 v 3.12894 h -3.12193 z m 3.185654,0 h 3.12193 v 3.12894 h -3.12193 z m 3.185652,0 h 3.121929 v 3.12894 h -3.121929 z m 3.185654,0 h 3.12193 v 3.12894 h -3.12193 z m 3.185652,0 h 3.121932 v 3.12894 h -3.121932 z m 3.185654,0 h 3.122449 v 3.12894 h -3.122449 z m 3.185654,0 h 3.122446 v 3.12894 H 37.955496 Z M 2.9133106,35.92989 h 3.1219299 v 3.12894 H 2.9133106 Z m 3.1856533,0 h 3.1224476 v 3.12894 H 6.0989639 Z m 3.1856532,0 h 3.1219299 v 3.12894 H 9.2846171 Z m 3.1856529,0 h 3.121929 v 3.12894 H 12.47027 Z m 3.186171,0 h 3.121412 v 3.12894 h -3.121412 z m 3.185135,0 h 3.12193 v 3.12894 h -3.12193 z m 3.185654,0 h 3.12193 v 3.12894 h -3.12193 z m 3.185652,0 h 3.121929 v 3.12894 h -3.121929 z m 3.185654,0 h 3.12193 v 3.12894 h -3.12193 z m 3.185652,0 h 3.121932 v 3.12894 h -3.121932 z m 3.185654,0 h 3.122449 v 3.12894 h -3.122449 z m 3.185654,0 h 3.122446 v 3.12894 H 37.955496 Z M 9.2846171,39.12248 H 12.406547 V 42.2509 H 9.2846171 Z m 3.1856529,0 h 3.121929 V 42.2509 H 12.47027 Z m 3.186171,0 h 3.121412 v 3.12842 h -3.121412 z m 3.185135,0 h 3.12193 v 3.12842 h -3.12193 z m 3.185654,0 h 3.12193 v 3.12842 h -3.12193 z m 3.185652,0 h 3.121929 v 3.12842 h -3.121929 z m 3.185654,0 h 3.12193 v 3.12842 h -3.12193 z m 3.185652,0 h 3.121932 v 3.12842 h -3.121932 z m -15.927747,3.19258 h 3.121412 v 3.12843 h -3.121412 z m 3.185135,0 h 3.12193 v 3.12843 h -3.12193 z m 3.185654,0 h 3.12193 v 3.12843 h -3.12193 z m 3.185652,0 h 3.121929 v 3.12843 h -3.121929 z m -6.371306,3.19259 h 3.12193 v 3.12842 h -3.12193 z m 3.185654,0 h 3.12193 v 3.12842 h -3.12193 z"
     id="path1483" />
  <rect
     transform="matrix(0.13254268,0,0,0.13282539,-31.439956,27.09054)"
     clip-path="url(#clipPath4593-6-9-0)"
     y="-297"
     x="0.13229197"
     height="594"
     width="841"
     id="rect1485"
     style="opacity:1;vector-effect:none;fill:url(#radialGradient1545);fill-opacity:1;stroke:none;stroke-width:2.11666656;stroke-linecap:butt;stroke-linejoin:miter;stroke-miterlimit:4;stroke-dasharray:none;stroke-dashoffset:0;stroke-opacity:1;paint-order:normal" />
  <text
     xml:space="preserve"
     style="font-style:normal;font-variant:normal;font-weight:bold;font-stretch:normal;font-size:55.34977722px;line-height:1.25;font-family:Oswald;-inkscape-font-specification:'Oswald Bold';font-variant-ligatures:normal;font-variant-position:normal;font-variant-caps:normal;font-variant-numeric:normal;font-variant-alternates:normal;font-feature-settings:normal;text-indent:0;text-align:end;text-decoration:none;text-decoration-line:none;text-decoration-style:solid;text-decoration-color:#000000;letter-spacing:normal;word-spacing:normal;text-transform:none;writing-mode:lr-tb;direction:ltr;text-orientation:mixed;dominant-baseline:auto;baseline-shift:baseline;text-anchor:end;white-space:normal;shape-padding:0;opacity:1;vector-effect:none;fill:#ffffff;fill-opacity:1;fill-rule:nonzero;stroke:none;stroke-width:4.42798233;stroke-linecap:round;stroke-linejoin:round;stroke-miterlimit:4;stroke-dasharray:none;stroke-dashoffset:0;stroke-opacity:1;paint-order:markers stroke fill"
     x="38.248432"
     y="39.046452"
     id="text3371"><tspan
       sodipodi:role="line"
       id="tspan3369"
       x="38.248432"
       y="39.046452"
       style="font-style:normal;font-variant:normal;font-weight:normal;font-stretch:normal;font-size:7.37997055px;font-family:Consolas;-inkscape-font-specification:Consolas;fill:#ffffff;stroke-width:4.42798233">starters</tspan></text>
  <path
     inkscape:connector-curvature="0"
     id="path1489"
     d="m 21.994603,5.80599 -11.961467,6.93506 0.0078,13.84587 11.969284,6.91079 11.96139,-6.93499 -0.0078,-13.84587 z m 1.52e-4,0.37195 11.482346,6.62966 -11.474836,6.65288 -11.482267,-6.62966 z m -11.684381,6.96561 11.482284,6.62966 0.0075,13.28247 -11.482831,-6.62965 z m 23.377731,-0.0236 0.0075,13.28248 -11.474757,6.65289 -0.0075,-13.28249 z"
     style="opacity:1;vector-effect:none;fill:#ffffff;fill-opacity:1;stroke:none;stroke-width:0.29275882;stroke-linecap:butt;stroke-linejoin:miter;stroke-miterlimit:4;stroke-dasharray:none;stroke-dashoffset:0;stroke-opacity:1;paint-order:normal" />
  <path
     id="path1491"
     style="font-style:normal;font-weight:normal;font-size:medium;line-height:1.25;font-family:sans-serif;letter-spacing:0px;word-spacing:0px;fill:#ffffff;fill-opacity:1;stroke:none;stroke-width:0.41474473"
     d="m 21.848569,33.125943 c 0,0 -2.419308,-1.396864 -2.419308,-1.396864 0,0 -4.691013,-8.040708 -4.691013,-8.040708 0,0 -2.626408,-1.516439 -2.626408,-1.516439 0,0 0.003,5.333944 0.003,5.333944 0,0 -1.863904,-1.076183 -1.863904,-1.076183 0,0 -0.0076,-13.415951 -0.0076,-13.415951 0,0 3.925492,2.266506 3.925492,2.266506 0.84723,0.489175 1.553282,0.95088 2.118163,1.385116 0.564877,0.42823 1.07332,0.907942 1.525329,1.439136 0.50851,0.599846 0.904101,1.215559 1.186776,1.847139 0.288946,0.629197 0.433622,1.301194 0.434027,2.015991 5.46e-4,0.967078 -0.253164,1.631229 -0.761132,1.992454 -0.507971,0.355218 -1.207441,0.440742 -2.098412,0.256572 0,0 5.27496,8.909287 5.27496,8.909287 M 17.484597,20.96867 c -2.17e-4,-0.384429 -0.07258,-0.765477 -0.217089,-1.143146 -0.138237,-0.380052 -0.370582,-0.766403 -0.697038,-1.159053 -0.269957,-0.330006 -0.590089,-0.634939 -0.960395,-0.914799 -0.370311,-0.285868 -0.806499,-0.573742 -1.30856,-0.863623 0,0 -2.193379,-1.266417 -2.193379,-1.266417 0,0 0.0029,5.063643 0.0029,5.063643 0,0 1.882729,1.087054 1.882729,1.087054 0.589923,0.34061 1.104508,0.589684 1.543758,0.747223 0.439246,0.151531 0.812547,0.180923 1.119907,0.08817 0.282268,-0.08922 0.489205,-0.257968 0.620813,-0.506236 0.13788,-0.250651 0.206677,-0.628258 0.206391,-1.13282 0,0 0,0 0,0"
     inkscape:connector-curvature="0" />
  <path
     inkscape:connector-curvature="0"
     id="path1495"
     d="m 16.347841,9.34374 11.636242,6.71854"
     style="opacity:1;vector-effect:none;fill:none;fill-opacity:1;stroke:#ffffff;stroke-width:0.2808477;stroke-linecap:butt;stroke-linejoin:miter;stroke-miterlimit:4;stroke-dasharray:none;stroke-dashoffset:0;stroke-opacity:1;paint-order:normal" />
  <path
     inkscape:connector-curvature="0"
     style="color:#000000;font-style:normal;font-variant:normal;font-weight:normal;font-stretch:normal;font-size:medium;line-height:normal;font-family:sans-serif;font-variant-ligatures:normal;font-variant-position:normal;font-variant-caps:normal;font-variant-numeric:normal;font-variant-alternates:normal;font-feature-settings:normal;text-indent:0;text-align:start;text-decoration:none;text-decoration-line:none;text-decoration-style:solid;text-decoration-color:#000000;letter-spacing:normal;word-spacing:normal;text-transform:none;writing-mode:lr-tb;direction:ltr;text-orientation:mixed;dominant-baseline:auto;baseline-shift:baseline;text-anchor:start;white-space:normal;shape-padding:0;clip-rule:nonzero;display:inline;overflow:visible;visibility:visible;opacity:1;isolation:auto;mix-blend-mode:normal;color-interpolation:sRGB;color-interpolation-filters:linearRGB;solid-color:#000000;solid-opacity:1;vector-effect:none;fill:#ffffff;fill-opacity:1;fill-rule:nonzero;stroke:none;stroke-width:0.14042385;stroke-linecap:butt;stroke-linejoin:miter;stroke-miterlimit:4;stroke-dasharray:none;stroke-dashoffset:0;stroke-opacity:1;color-rendering:auto;image-rendering:auto;shape-rendering:auto;text-rendering:auto;enable-background:accumulate"
     d="m 33.388302,13.02097 -0.238348,0.13759 -11.105502,19.75118 5.8e-4,0.28533 z M 33.8257,13.26242 22.784932,32.89855 23.022318,32.7627 33.826966,13.54651 Z m -1.524368,0.38606 -0.238348,0.13759 -10.020914,17.8222 5.79e-4,0.28534 z m -1.08698,0.62743 -0.238347,0.13759 -8.93631,15.8933 5.8e-4,0.28535 z m 2.61709,0.28228 -9.963779,17.72063 0.237394,-0.13588 9.727633,-17.30066 z m -3.704069,0.34521 -0.23834,0.13759 -7.85172,13.96434 5.79e-4,0.28533 z m -1.087041,0.62745 -0.238356,0.13759 -6.767115,12.03543 5.79e-4,0.28539 z m 4.796772,0.32291 -8.886842,15.80531 0.237386,-0.13586 8.650705,-15.38529 z m -5.883751,0.30459 -0.238348,0.13759 -5.682527,10.10645 5.79e-4,0.28541 z m -1.086979,0.62744 -0.238348,0.13758 -4.597922,8.17756 5.79e-4,0.28539 z m 6.976392,0.3636 -7.809904,13.89001 0.237387,-0.13587 7.573766,-13.47006 z m -8.063363,0.26389 -0.238357,0.1376 -3.513325,6.24856 5.79e-4,0.28541 z m -1.086979,0.62744 -0.238349,0.13759 -2.428797,4.31967 5.79e-4,0.28539 z m 9.156006,0.40429 -6.732977,11.97465 0.237387,-0.13589 6.496847,-11.55465 z M 23.664049,18.6344 23.4257,18.772 l -1.402701,2.49466 5.79e-4,0.28534 z m 10.190112,1.10626 -5.656037,10.05935 0.237385,-0.13595 5.41984,-9.63931 z m 0.0059,1.29563 -4.579109,8.14396 0.237394,-0.13587 4.342972,-7.72399 z m 0.0059,1.29563 -3.502172,6.22859 0.237386,-0.13587 3.266043,-5.80862 z m 0.0059,1.29564 -2.425174,4.31328 0.237394,-0.13588 2.189037,-3.8933 z m 0.0059,1.29561 -1.348314,2.39792 0.237386,-0.13586 1.112116,-1.97795 z"
     id="path5280" />
</svg>
